<svg xmlns="http://www.w3.org/2000/svg" width="91mm" height="61mm" viewBox="0 0 91 61" font-family="'Geist','Inter',-apple-system,'Segoe UI',Arial,sans-serif">
  <!-- full-bleed background -->
  <rect width="91" height="61" fill="#050F1C"/>
  <!-- QR on a white panel: black-on-white for maximum scan reliability -->
  <rect x="8" y="14.5" width="32" height="32" rx="2" fill="#FFFFFF"/>
  <!-- QR 28 mm printed size (panel provides extra quiet zone) -->
  <svg x="10" y="16.5" width="28" height="28" viewBox="0 0 37 37" shape-rendering="crispEdges"><path stroke="#000000" d="M4 4.5h7m1 0h1m1 0h1m1 0h1m1 0h1m1 0h3m1 0h1m1 0h7M4 5.5h1m5 0h1m5 0h3m3 0h3m1 0h1m5 0h1M4 6.5h1m1 0h3m1 0h1m2 0h1m1 0h1m1 0h1m2 0h1m3 0h1m1 0h1m1 0h3m1 0h1M4 7.5h1m1 0h3m1 0h1m1 0h3m4 0h2m1 0h1m3 0h1m1 0h3m1 0h1M4 8.5h1m1 0h3m1 0h1m4 0h1m3 0h1m1 0h1m1 0h1m2 0h1m1 0h3m1 0h1M4 9.5h1m5 0h1m2 0h1m1 0h1m1 0h1m2 0h1m1 0h2m2 0h1m5 0h1M4 10.5h7m1 0h1m1 0h1m1 0h1m1 0h1m1 0h1m1 0h1m1 0h1m1 0h7M13 11.5h1m1 0h2m1 0h1M6 12.5h1m1 0h3m1 0h2m4 0h1m1 0h1m4 0h1m3 0h1m2 0h1M5 13.5h1m2 0h2m1 0h2m1 0h2m4 0h2m2 0h4m4 0h1M4 14.5h4m1 0h3m1 0h1m3 0h3m1 0h2m1 0h1m2 0h2m2 0h2M4 15.5h4m3 0h5m1 0h3m1 0h1m1 0h4m1 0h2m1 0h1M5 16.5h1m1 0h5m2 0h1m1 0h1m3 0h1m1 0h1m3 0h2M6 17.5h3m2 0h3m1 0h1m1 0h1m4 0h1m1 0h4m3 0h2M4 18.5h1m1 0h1m2 0h6m1 0h1m2 0h1m5 0h1m1 0h1m2 0h3M4 19.5h1m2 0h2m2 0h2m1 0h2m2 0h3m2 0h2m1 0h2M4 20.5h3m1 0h1m1 0h1m3 0h4m1 0h1m1 0h2m2 0h2m2 0h1m1 0h2M7 21.5h1m1 0h1m1 0h2m1 0h1m1 0h1m2 0h1m4 0h3m3 0h3M4 22.5h1m2 0h1m1 0h3m1 0h2m2 0h1m1 0h2m1 0h1m2 0h1m1 0h1m3 0h2M5 23.5h5m2 0h3m1 0h2m1 0h1m1 0h3m2 0h1m1 0h1m3 0h1M4 24.5h1m1 0h5m1 0h1m1 0h1m2 0h3m1 0h8m2 0h2M12 25.5h3m1 0h1m4 0h1m2 0h1m3 0h1m2 0h2M4 26.5h7m6 0h1m1 0h1m2 0h3m1 0h1m1 0h1m1 0h3M4 27.5h1m5 0h1m1 0h1m1 0h1m1 0h2m1 0h1m2 0h1m1 0h1m3 0h1m2 0h2M4 28.5h1m1 0h3m1 0h1m1 0h2m1 0h1m3 0h4m1 0h6m2 0h1M4 29.5h1m1 0h3m1 0h1m2 0h1m3 0h1m4 0h1m1 0h2m2 0h2M4 30.5h1m1 0h3m1 0h1m1 0h1m2 0h3m1 0h2m1 0h2m3 0h3m2 0h1M4 31.5h1m5 0h1m4 0h1m3 0h1m1 0h4m1 0h2m3 0h1M4 32.5h7m2 0h1m1 0h1m1 0h2m1 0h1m2 0h2m3 0h1m2 0h2"/></svg>
  <text x="8.5" y="52.4" font-size="2.6" letter-spacing="0.06" fill="#7A8CA3" font-family="'JetBrains Mono','SF Mono',Consolas,monospace">uroref.com/nity</text>
  <!-- project list -->
  <g font-size="4.6" font-weight="600" fill="#FFFFFF">
    <text x="48" y="21.2">Uro<tspan fill="#00D4C8">Ref</tspan></text>
    <text x="48" y="28.6">Prostate<tspan fill="#38BDF8">View</tspan></text>
    <text x="48" y="36">Calyx<tspan fill="#F59E0B">View</tspan></text>
    <text x="48" y="43.4">UroOps<tspan fill="#A78BFA">3D</tspan></text>
  </g>
  <text x="48" y="50.6" font-size="2.9" letter-spacing="0.14" fill="#F5D76E" font-family="'JetBrains Mono','SF Mono',Consolas,monospace">EXPLORE THE ECOSYSTEM</text>
</svg>