<svg xmlns="http://www.w3.org/2000/svg" width="91mm" height="61mm" viewBox="0 0 91 61" font-family="'Geist','Inter',-apple-system,'Segoe UI',Arial,sans-serif">
  <rect width="91" height="61" fill="#050F1C"/>
  <!-- fine grid texture, kept inside bleed -->
  <g stroke="#FFFFFF" stroke-opacity="0.03" stroke-width="0.1">
    <line x1="11" y1="0" x2="11" y2="61"/><line x1="21" y1="0" x2="21" y2="61"/><line x1="31" y1="0" x2="31" y2="61"/><line x1="41" y1="0" x2="41" y2="61"/><line x1="51" y1="0" x2="51" y2="61"/><line x1="61" y1="0" x2="61" y2="61"/><line x1="71" y1="0" x2="71" y2="61"/><line x1="81" y1="0" x2="81" y2="61"/>
    <line x1="0" y1="10" x2="91" y2="10"/><line x1="0" y1="20" x2="91" y2="20"/><line x1="0" y1="30" x2="91" y2="30"/><line x1="0" y1="40" x2="91" y2="40"/><line x1="0" y1="50" x2="91" y2="50"/>
  </g>
  <text x="10" y="12.5" font-size="3.4" font-weight="700" fill="#FFFFFF">Uro<tspan fill="#00D4C8">Ref</tspan><tspan fill="#00D4C8" font-size="3.4"> ·</tspan></text>
  <text x="10" y="27" font-size="8.4" font-weight="700" letter-spacing="-0.2" fill="#FFFFFF">Nity G<tspan fill="#F5D76E">.</tspan></text>
  <text x="10" y="33.4" font-size="3.6" font-weight="600" fill="#FFFFFF">ST5 Urology Registrar</text>
  <text x="10" y="38.2" font-size="3" fill="#B8C5D6">Medical Educator · Digital Health Builder</text>
  <line x1="10" y1="43" x2="26" y2="43" stroke="#F5D76E" stroke-width="0.25" stroke-opacity="0.7"/>
  <g font-family="'JetBrains Mono','SF Mono',Consolas,monospace" font-size="2.9">
    <text x="10" y="48.6" fill="#00D4C8">nity@uroref.com</text>
    <text x="10" y="53.2" fill="#7A8CA3">uroref.com/nity</text>
  </g>
</svg>